<mxfile host="app.diagrams.net" modified="2021-06-12T05:44:58.150Z" agent="5.0 (Windows NT 10.0; WOW64) AppleWebKit/537.36 (KHTML, like Gecko) Chrome/85.0.4183.102 Safari/537.36" etag="WCus851k6LRi01j7EILW" version="14.5.6" type="github">
  <diagram id="t3G-pzk_SLEKTdY6DC6B" name="第 1 页">
    <mxGraphModel dx="2031" dy="1089" grid="1" gridSize="10" guides="1" tooltips="1" connect="1" arrows="1" fold="1" page="1" pageScale="1" pageWidth="827" pageHeight="1169" math="0" shadow="0">
      <root>
        <mxCell id="0" />
        <mxCell id="1" parent="0" />
        <mxCell id="3n2813O9StvmxeVWwpXJ-12" value="" style="edgeStyle=orthogonalEdgeStyle;rounded=0;orthogonalLoop=1;jettySize=auto;html=1;entryX=0.5;entryY=0;entryDx=0;entryDy=0;" edge="1" parent="1" source="U6J5OQ7OiZoA_9P3ea45-149" target="3n2813O9StvmxeVWwpXJ-5">
          <mxGeometry relative="1" as="geometry" />
        </mxCell>
        <mxCell id="U6J5OQ7OiZoA_9P3ea45-149" value="" style="rounded=0;whiteSpace=wrap;html=1;shadow=1;glass=1;sketch=0;strokeWidth=1;fontSize=16;fillColor=#b0e3e6;strokeColor=#0e8088;" parent="1" vertex="1">
          <mxGeometry x="440" y="100" width="960" height="110" as="geometry" />
        </mxCell>
        <mxCell id="3n2813O9StvmxeVWwpXJ-20" style="edgeStyle=orthogonalEdgeStyle;rounded=0;orthogonalLoop=1;jettySize=auto;html=1;entryX=0.5;entryY=0;entryDx=0;entryDy=0;" edge="1" parent="1" source="U6J5OQ7OiZoA_9P3ea45-7" target="U6J5OQ7OiZoA_9P3ea45-142">
          <mxGeometry relative="1" as="geometry">
            <Array as="points">
              <mxPoint x="920" y="1110" />
              <mxPoint x="1335" y="1110" />
            </Array>
          </mxGeometry>
        </mxCell>
        <mxCell id="3n2813O9StvmxeVWwpXJ-21" style="edgeStyle=orthogonalEdgeStyle;rounded=0;orthogonalLoop=1;jettySize=auto;html=1;entryX=0.5;entryY=0;entryDx=0;entryDy=0;" edge="1" parent="1" source="U6J5OQ7OiZoA_9P3ea45-7" target="U6J5OQ7OiZoA_9P3ea45-9">
          <mxGeometry relative="1" as="geometry" />
        </mxCell>
        <mxCell id="U6J5OQ7OiZoA_9P3ea45-7" value="" style="rounded=0;whiteSpace=wrap;html=1;fontSize=16;fillColor=#d5e8d4;strokeColor=#82b366;glass=1;shadow=1;" parent="1" vertex="1">
          <mxGeometry x="440" y="600" width="960" height="480" as="geometry" />
        </mxCell>
        <mxCell id="U6J5OQ7OiZoA_9P3ea45-60" value="" style="rounded=0;whiteSpace=wrap;html=1;dashed=1;fontSize=16;fillColor=none;" parent="1" vertex="1">
          <mxGeometry x="490" y="657" width="310" height="383" as="geometry" />
        </mxCell>
        <mxCell id="U6J5OQ7OiZoA_9P3ea45-8" value="&lt;font style=&quot;vertical-align: inherit; font-size: 16px;&quot;&gt;&lt;font style=&quot;vertical-align: inherit; font-size: 16px;&quot;&gt;服务层&lt;/font&gt;&lt;/font&gt;" style="rounded=0;whiteSpace=wrap;html=1;fontStyle=1;fontSize=16;labelPosition=center;verticalLabelPosition=middle;align=center;verticalAlign=middle;horizontal=1;fillColor=#b1ddf0;strokeColor=#10739e;glass=1;shadow=1;" parent="1" vertex="1">
          <mxGeometry x="300" y="600" width="120" height="480" as="geometry" />
        </mxCell>
        <mxCell id="U6J5OQ7OiZoA_9P3ea45-172" value="" style="edgeStyle=orthogonalEdgeStyle;rounded=0;orthogonalLoop=1;jettySize=auto;html=1;shadow=1;fontSize=16;" parent="1" source="U6J5OQ7OiZoA_9P3ea45-9" edge="1">
          <mxGeometry relative="1" as="geometry">
            <mxPoint x="1269" y="1245" as="targetPoint" />
            <Array as="points" />
          </mxGeometry>
        </mxCell>
        <mxCell id="U6J5OQ7OiZoA_9P3ea45-173" value="" style="edgeStyle=orthogonalEdgeStyle;rounded=0;orthogonalLoop=1;jettySize=auto;html=1;shadow=1;fontSize=16;entryX=0.5;entryY=0;entryDx=0;entryDy=0;" parent="1" source="U6J5OQ7OiZoA_9P3ea45-9" target="U6J5OQ7OiZoA_9P3ea45-155" edge="1">
          <mxGeometry relative="1" as="geometry" />
        </mxCell>
        <mxCell id="U6J5OQ7OiZoA_9P3ea45-9" value="" style="rounded=0;whiteSpace=wrap;html=1;fontSize=16;fillColor=#dae8fc;strokeColor=#6c8ebf;glass=1;shadow=1;" parent="1" vertex="1">
          <mxGeometry x="440" y="1140" width="810" height="210" as="geometry" />
        </mxCell>
        <mxCell id="U6J5OQ7OiZoA_9P3ea45-10" value="&lt;font style=&quot;vertical-align: inherit; font-size: 16px;&quot;&gt;&lt;font style=&quot;vertical-align: inherit; font-size: 16px;&quot;&gt;基础设施层&lt;/font&gt;&lt;/font&gt;" style="rounded=0;whiteSpace=wrap;html=1;fontSize=16;fillColor=#b1ddf0;strokeColor=#10739e;fontStyle=1;glass=1;shadow=1;" parent="1" vertex="1">
          <mxGeometry x="300" y="1140" width="120" height="300" as="geometry" />
        </mxCell>
        <mxCell id="U6J5OQ7OiZoA_9P3ea45-11" value="&lt;font style=&quot;vertical-align: inherit; font-size: 16px;&quot;&gt;&lt;font style=&quot;vertical-align: inherit; font-size: 16px;&quot;&gt;&lt;font style=&quot;vertical-align: inherit; font-size: 16px;&quot;&gt;&lt;font style=&quot;vertical-align: inherit; font-size: 16px;&quot;&gt;&lt;font style=&quot;vertical-align: inherit; font-size: 16px;&quot;&gt;&lt;font style=&quot;vertical-align: inherit; font-size: 16px;&quot;&gt;账号&lt;/font&gt;&lt;/font&gt;&lt;/font&gt;&lt;/font&gt;&lt;/font&gt;&lt;/font&gt;" style="rounded=1;whiteSpace=wrap;html=1;fontSize=16;shadow=1;glass=1;" parent="1" vertex="1">
          <mxGeometry x="513.25" y="680" width="120" height="60" as="geometry" />
        </mxCell>
        <mxCell id="U6J5OQ7OiZoA_9P3ea45-12" value="&lt;font style=&quot;vertical-align: inherit; font-size: 16px;&quot;&gt;&lt;font style=&quot;vertical-align: inherit; font-size: 16px;&quot;&gt;&lt;font style=&quot;vertical-align: inherit; font-size: 16px;&quot;&gt;&lt;font style=&quot;vertical-align: inherit; font-size: 16px;&quot;&gt;认证授权&lt;/font&gt;&lt;/font&gt;&lt;/font&gt;&lt;/font&gt;" style="rounded=1;whiteSpace=wrap;html=1;fontSize=16;shadow=1;glass=1;" parent="1" vertex="1">
          <mxGeometry x="656.75" y="680" width="120" height="60" as="geometry" />
        </mxCell>
        <mxCell id="U6J5OQ7OiZoA_9P3ea45-13" value="&lt;font style=&quot;vertical-align: inherit; font-size: 16px;&quot;&gt;&lt;font style=&quot;vertical-align: inherit; font-size: 16px;&quot;&gt;权限&lt;/font&gt;&lt;/font&gt;" style="rounded=1;whiteSpace=wrap;html=1;fontSize=16;shadow=1;glass=1;" parent="1" vertex="1">
          <mxGeometry x="513.25" y="770" width="120" height="60" as="geometry" />
        </mxCell>
        <mxCell id="U6J5OQ7OiZoA_9P3ea45-61" value="&lt;font style=&quot;vertical-align: inherit ; font-size: 16px&quot;&gt;&lt;font style=&quot;vertical-align: inherit ; font-size: 16px&quot;&gt;基础框架模块&lt;/font&gt;&lt;/font&gt;" style="text;html=1;align=center;verticalAlign=middle;whiteSpace=wrap;rounded=0;fontStyle=1;fontSize=16;" parent="1" vertex="1">
          <mxGeometry x="583.75" y="623" width="122.5" height="20" as="geometry" />
        </mxCell>
        <mxCell id="U6J5OQ7OiZoA_9P3ea45-62" value="" style="rounded=0;whiteSpace=wrap;html=1;dashed=1;fontSize=16;fillColor=none;" parent="1" vertex="1">
          <mxGeometry x="830" y="657" width="320" height="383" as="geometry" />
        </mxCell>
        <mxCell id="U6J5OQ7OiZoA_9P3ea45-63" value="&lt;font style=&quot;vertical-align: inherit; font-size: 16px;&quot;&gt;&lt;font style=&quot;vertical-align: inherit; font-size: 16px;&quot;&gt;&lt;font style=&quot;vertical-align: inherit; font-size: 16px;&quot;&gt;&lt;font style=&quot;vertical-align: inherit; font-size: 16px;&quot;&gt;&lt;font style=&quot;vertical-align: inherit; font-size: 16px;&quot;&gt;&lt;font style=&quot;vertical-align: inherit; font-size: 16px;&quot;&gt;&lt;font style=&quot;vertical-align: inherit; font-size: 16px;&quot;&gt;&lt;font style=&quot;vertical-align: inherit; font-size: 16px;&quot;&gt;Todo&lt;/font&gt;&lt;/font&gt;&lt;/font&gt;&lt;/font&gt;&lt;/font&gt;&lt;/font&gt;&lt;/font&gt;&lt;/font&gt;" style="rounded=1;whiteSpace=wrap;html=1;fontSize=16;shadow=1;glass=1;" parent="1" vertex="1">
          <mxGeometry x="855" y="680" width="120" height="60" as="geometry" />
        </mxCell>
        <mxCell id="U6J5OQ7OiZoA_9P3ea45-64" value="&lt;font style=&quot;vertical-align: inherit; font-size: 16px;&quot;&gt;&lt;font style=&quot;vertical-align: inherit; font-size: 16px;&quot;&gt;&lt;font style=&quot;vertical-align: inherit; font-size: 16px;&quot;&gt;&lt;font style=&quot;vertical-align: inherit; font-size: 16px;&quot;&gt;组织架构&lt;/font&gt;&lt;/font&gt;&lt;/font&gt;&lt;/font&gt;" style="rounded=1;whiteSpace=wrap;html=1;fontSize=16;shadow=1;glass=1;" parent="1" vertex="1">
          <mxGeometry x="855" y="770" width="120" height="60" as="geometry" />
        </mxCell>
        <mxCell id="U6J5OQ7OiZoA_9P3ea45-65" value="任务调度" style="rounded=1;whiteSpace=wrap;html=1;fontSize=16;shadow=1;glass=1;" parent="1" vertex="1">
          <mxGeometry x="855" y="858" width="120" height="60" as="geometry" />
        </mxCell>
        <mxCell id="U6J5OQ7OiZoA_9P3ea45-66" value="公共业务模块" style="text;html=1;align=center;verticalAlign=middle;whiteSpace=wrap;rounded=0;fontStyle=1;fontSize=16;" parent="1" vertex="1">
          <mxGeometry x="855" y="623" width="112.5" height="20" as="geometry" />
        </mxCell>
        <mxCell id="U6J5OQ7OiZoA_9P3ea45-67" value="" style="rounded=0;whiteSpace=wrap;html=1;dashed=1;fontSize=16;fillColor=none;" parent="1" vertex="1">
          <mxGeometry x="1180" y="657" width="170" height="383" as="geometry" />
        </mxCell>
        <mxCell id="U6J5OQ7OiZoA_9P3ea45-68" value="&lt;font style=&quot;vertical-align: inherit; font-size: 16px;&quot;&gt;&lt;font style=&quot;vertical-align: inherit; font-size: 16px;&quot;&gt;&lt;font style=&quot;vertical-align: inherit; font-size: 16px;&quot;&gt;&lt;font style=&quot;vertical-align: inherit; font-size: 16px;&quot;&gt;&lt;font style=&quot;vertical-align: inherit; font-size: 16px;&quot;&gt;&lt;font style=&quot;vertical-align: inherit; font-size: 16px;&quot;&gt;&lt;font style=&quot;vertical-align: inherit; font-size: 16px;&quot;&gt;&lt;font style=&quot;vertical-align: inherit; font-size: 16px;&quot;&gt;检查库&lt;/font&gt;&lt;/font&gt;&lt;/font&gt;&lt;/font&gt;&lt;/font&gt;&lt;/font&gt;&lt;/font&gt;&lt;/font&gt;" style="rounded=1;whiteSpace=wrap;html=1;fontSize=16;shadow=1;glass=1;" parent="1" vertex="1">
          <mxGeometry x="1205" y="680" width="120" height="60" as="geometry" />
        </mxCell>
        <mxCell id="U6J5OQ7OiZoA_9P3ea45-69" value="&lt;font style=&quot;vertical-align: inherit; font-size: 16px;&quot;&gt;&lt;font style=&quot;vertical-align: inherit; font-size: 16px;&quot;&gt;&lt;font style=&quot;vertical-align: inherit; font-size: 16px;&quot;&gt;&lt;font style=&quot;vertical-align: inherit; font-size: 16px;&quot;&gt;检查计划&lt;/font&gt;&lt;/font&gt;&lt;/font&gt;&lt;/font&gt;" style="rounded=1;whiteSpace=wrap;html=1;fontSize=16;shadow=1;glass=1;" parent="1" vertex="1">
          <mxGeometry x="1205" y="770" width="120" height="60" as="geometry" />
        </mxCell>
        <mxCell id="U6J5OQ7OiZoA_9P3ea45-70" value="报备池" style="rounded=1;whiteSpace=wrap;html=1;fontSize=16;shadow=1;glass=1;" parent="1" vertex="1">
          <mxGeometry x="1205" y="858" width="120" height="60" as="geometry" />
        </mxCell>
        <mxCell id="U6J5OQ7OiZoA_9P3ea45-71" value="业务模块" style="text;html=1;align=center;verticalAlign=middle;whiteSpace=wrap;rounded=0;fontStyle=1;fontSize=16;" parent="1" vertex="1">
          <mxGeometry x="1208.75" y="623" width="112.5" height="20" as="geometry" />
        </mxCell>
        <mxCell id="U6J5OQ7OiZoA_9P3ea45-72" value="&lt;font style=&quot;vertical-align: inherit; font-size: 16px;&quot;&gt;&lt;font style=&quot;vertical-align: inherit; font-size: 16px;&quot;&gt;Excel操作&lt;/font&gt;&lt;/font&gt;" style="rounded=1;whiteSpace=wrap;html=1;fontSize=16;shadow=1;glass=1;" parent="1" vertex="1">
          <mxGeometry x="482.5" y="1170" width="120" height="60" as="geometry" />
        </mxCell>
        <mxCell id="U6J5OQ7OiZoA_9P3ea45-73" value="&lt;font style=&quot;vertical-align: inherit; font-size: 16px;&quot;&gt;&lt;font style=&quot;vertical-align: inherit; font-size: 16px;&quot;&gt;Word操作&lt;/font&gt;&lt;/font&gt;" style="rounded=1;whiteSpace=wrap;html=1;fontSize=16;shadow=1;glass=1;" parent="1" vertex="1">
          <mxGeometry x="627.5" y="1170" width="120" height="60" as="geometry" />
        </mxCell>
        <mxCell id="U6J5OQ7OiZoA_9P3ea45-75" value="&lt;font style=&quot;vertical-align: inherit; font-size: 16px;&quot;&gt;&lt;font style=&quot;vertical-align: inherit; font-size: 16px;&quot;&gt;加密&lt;/font&gt;&lt;/font&gt;" style="rounded=1;whiteSpace=wrap;html=1;fontSize=16;shadow=1;glass=1;" parent="1" vertex="1">
          <mxGeometry x="940" y="1260" width="120" height="60" as="geometry" />
        </mxCell>
        <mxCell id="U6J5OQ7OiZoA_9P3ea45-76" value="&lt;font style=&quot;vertical-align: inherit ; font-size: 16px&quot;&gt;&lt;font style=&quot;vertical-align: inherit ; font-size: 16px&quot;&gt;日志&lt;/font&gt;&lt;/font&gt;" style="rounded=1;whiteSpace=wrap;html=1;fontSize=16;shadow=1;glass=1;" parent="1" vertex="1">
          <mxGeometry x="940" y="1170" width="120" height="60" as="geometry" />
        </mxCell>
        <mxCell id="U6J5OQ7OiZoA_9P3ea45-77" value="&lt;font style=&quot;vertical-align: inherit ; font-size: 16px&quot;&gt;&lt;font style=&quot;vertical-align: inherit ; font-size: 16px&quot;&gt;缓存&lt;/font&gt;&lt;/font&gt;" style="rounded=1;whiteSpace=wrap;html=1;fontSize=16;shadow=1;glass=1;" parent="1" vertex="1">
          <mxGeometry x="482.5" y="1260" width="120" height="60" as="geometry" />
        </mxCell>
        <mxCell id="U6J5OQ7OiZoA_9P3ea45-79" value="&lt;font style=&quot;vertical-align: inherit ; font-size: 16px&quot;&gt;&lt;font style=&quot;vertical-align: inherit ; font-size: 16px&quot;&gt;分库分表&lt;/font&gt;&lt;/font&gt;" style="rounded=1;whiteSpace=wrap;html=1;fontSize=16;shadow=1;glass=1;" parent="1" vertex="1">
          <mxGeometry x="785" y="1260" width="120" height="60" as="geometry" />
        </mxCell>
        <mxCell id="U6J5OQ7OiZoA_9P3ea45-80" value="审计日志" style="rounded=1;whiteSpace=wrap;html=1;fontSize=16;shadow=1;glass=1;" parent="1" vertex="1">
          <mxGeometry x="656.75" y="770" width="120" height="60" as="geometry" />
        </mxCell>
        <mxCell id="U6J5OQ7OiZoA_9P3ea45-81" value="租户" style="rounded=1;whiteSpace=wrap;html=1;fontSize=16;shadow=1;glass=1;" parent="1" vertex="1">
          <mxGeometry x="513.25" y="858" width="120" height="60" as="geometry" />
        </mxCell>
        <mxCell id="U6J5OQ7OiZoA_9P3ea45-83" value="业务配置表" style="rounded=1;whiteSpace=wrap;html=1;fontSize=16;shadow=1;glass=1;" parent="1" vertex="1">
          <mxGeometry x="656.75" y="858" width="120" height="60" as="geometry" />
        </mxCell>
        <mxCell id="U6J5OQ7OiZoA_9P3ea45-84" value="&lt;span&gt;短信&lt;/span&gt;" style="rounded=1;whiteSpace=wrap;html=1;fontSize=16;shadow=1;glass=1;" parent="1" vertex="1">
          <mxGeometry x="513.25" y="950" width="120" height="60" as="geometry" />
        </mxCell>
        <mxCell id="U6J5OQ7OiZoA_9P3ea45-85" value="邮件" style="rounded=1;whiteSpace=wrap;html=1;fontSize=16;shadow=1;glass=1;" parent="1" vertex="1">
          <mxGeometry x="656.75" y="950" width="120" height="60" as="geometry" />
        </mxCell>
        <mxCell id="U6J5OQ7OiZoA_9P3ea45-86" value="P6系统" style="rounded=1;whiteSpace=wrap;html=1;fontSize=16;shadow=1;glass=1;" parent="1" vertex="1">
          <mxGeometry x="855" y="950" width="120" height="60" as="geometry" />
        </mxCell>
        <mxCell id="U6J5OQ7OiZoA_9P3ea45-87" value="......" style="rounded=1;whiteSpace=wrap;html=1;fontSize=16;shadow=1;glass=1;" parent="1" vertex="1">
          <mxGeometry x="1205" y="950" width="120" height="60" as="geometry" />
        </mxCell>
        <mxCell id="U6J5OQ7OiZoA_9P3ea45-102" value="枚举" style="rounded=1;whiteSpace=wrap;html=1;fontSize=16;shadow=1;glass=1;" parent="1" vertex="1">
          <mxGeometry x="630" y="1260" width="120" height="60" as="geometry" />
        </mxCell>
        <mxCell id="U6J5OQ7OiZoA_9P3ea45-103" value="过滤器" style="rounded=1;whiteSpace=wrap;html=1;fontSize=16;shadow=1;glass=1;" parent="1" vertex="1">
          <mxGeometry x="785" y="1170" width="120" height="60" as="geometry" />
        </mxCell>
        <mxCell id="U6J5OQ7OiZoA_9P3ea45-105" value="" style="rounded=0;whiteSpace=wrap;html=1;fontSize=16;fillColor=#f5f5f5;strokeColor=#666666;fontColor=#333333;glass=1;shadow=1;" parent="1" vertex="1">
          <mxGeometry x="440" y="1500" width="960" height="120" as="geometry" />
        </mxCell>
        <mxCell id="U6J5OQ7OiZoA_9P3ea45-106" value="&lt;font style=&quot;vertical-align: inherit ; font-size: 16px&quot;&gt;&lt;font style=&quot;vertical-align: inherit ; font-size: 16px&quot;&gt;存储&lt;/font&gt;&lt;/font&gt;" style="rounded=0;whiteSpace=wrap;html=1;fontSize=16;fillColor=#b1ddf0;strokeColor=#10739e;fontStyle=1;glass=1;shadow=1;" parent="1" vertex="1">
          <mxGeometry x="300" y="1500" width="120" height="120" as="geometry" />
        </mxCell>
        <mxCell id="U6J5OQ7OiZoA_9P3ea45-117" value="SqlServer" style="shape=datastore;whiteSpace=wrap;html=1;shadow=1;glass=1;sketch=0;strokeWidth=1;fontSize=16;" parent="1" vertex="1">
          <mxGeometry x="512.5" y="1530" width="60" height="60" as="geometry" />
        </mxCell>
        <mxCell id="U6J5OQ7OiZoA_9P3ea45-118" value="cosmos db" style="shape=datastore;whiteSpace=wrap;html=1;shadow=1;glass=1;sketch=0;strokeWidth=1;fontSize=16;" parent="1" vertex="1">
          <mxGeometry x="665" y="1530" width="60" height="60" as="geometry" />
        </mxCell>
        <mxCell id="U6J5OQ7OiZoA_9P3ea45-119" value="mySql" style="shape=datastore;whiteSpace=wrap;html=1;shadow=1;glass=1;sketch=0;strokeWidth=1;fontSize=16;" parent="1" vertex="1">
          <mxGeometry x="815" y="1530" width="60" height="60" as="geometry" />
        </mxCell>
        <mxCell id="o2Ne5mCiSdssdzf63n3L-6" style="edgeStyle=orthogonalEdgeStyle;rounded=0;orthogonalLoop=1;jettySize=auto;html=1;" parent="1" source="U6J5OQ7OiZoA_9P3ea45-120" target="U6J5OQ7OiZoA_9P3ea45-7" edge="1">
          <mxGeometry relative="1" as="geometry" />
        </mxCell>
        <mxCell id="U6J5OQ7OiZoA_9P3ea45-120" value="" style="rounded=0;whiteSpace=wrap;html=1;fontSize=16;fillColor=#fff2cc;strokeColor=#d6b656;glass=1;shadow=1;" parent="1" vertex="1">
          <mxGeometry x="810" y="430" width="590" height="120" as="geometry" />
        </mxCell>
        <mxCell id="U6J5OQ7OiZoA_9P3ea45-121" value="网关 / 应用层" style="rounded=0;whiteSpace=wrap;html=1;fontSize=16;fillColor=#b1ddf0;strokeColor=#10739e;fontStyle=1;glass=1;shadow=1;" parent="1" vertex="1">
          <mxGeometry x="300" y="430" width="120" height="120" as="geometry" />
        </mxCell>
        <mxCell id="U6J5OQ7OiZoA_9P3ea45-122" value="&lt;font style=&quot;vertical-align: inherit ; font-size: 16px&quot;&gt;&lt;font style=&quot;vertical-align: inherit ; font-size: 16px&quot;&gt;后台Api&lt;/font&gt;&lt;/font&gt;" style="rounded=1;whiteSpace=wrap;html=1;fontSize=16;shadow=1;glass=1;" parent="1" vertex="1">
          <mxGeometry x="1000" y="460" width="120" height="60" as="geometry" />
        </mxCell>
        <mxCell id="U6J5OQ7OiZoA_9P3ea45-125" value="&lt;font style=&quot;vertical-align: inherit ; font-size: 16px&quot;&gt;&lt;font style=&quot;vertical-align: inherit ; font-size: 16px&quot;&gt;认证 /&amp;nbsp;&lt;/font&gt;&lt;/font&gt;授权" style="rounded=1;whiteSpace=wrap;html=1;fontSize=16;shadow=1;glass=1;" parent="1" vertex="1">
          <mxGeometry x="1150" y="460" width="120" height="60" as="geometry" />
        </mxCell>
        <mxCell id="o2Ne5mCiSdssdzf63n3L-7" style="edgeStyle=orthogonalEdgeStyle;rounded=0;orthogonalLoop=1;jettySize=auto;html=1;entryX=0.5;entryY=0;entryDx=0;entryDy=0;" parent="1" source="U6J5OQ7OiZoA_9P3ea45-127" target="U6J5OQ7OiZoA_9P3ea45-7" edge="1">
          <mxGeometry relative="1" as="geometry" />
        </mxCell>
        <mxCell id="U6J5OQ7OiZoA_9P3ea45-127" value="" style="rounded=0;whiteSpace=wrap;html=1;fontSize=16;fillColor=#ffe6cc;strokeColor=#d79b00;glass=1;shadow=1;" parent="1" vertex="1">
          <mxGeometry x="440" y="430" width="350" height="120" as="geometry" />
        </mxCell>
        <mxCell id="U6J5OQ7OiZoA_9P3ea45-130" value="&lt;font style=&quot;vertical-align: inherit ; font-size: 16px&quot;&gt;&lt;font style=&quot;vertical-align: inherit ; font-size: 16px&quot;&gt;限流 / 熔断&lt;/font&gt;&lt;/font&gt;" style="rounded=1;whiteSpace=wrap;html=1;fontSize=16;shadow=1;glass=1;" parent="1" vertex="1">
          <mxGeometry x="477.5" y="460" width="120" height="60" as="geometry" />
        </mxCell>
        <mxCell id="U6J5OQ7OiZoA_9P3ea45-131" value="&lt;font style=&quot;vertical-align: inherit ; font-size: 16px&quot;&gt;&lt;font style=&quot;vertical-align: inherit ; font-size: 16px&quot;&gt;监控&lt;/font&gt;&lt;/font&gt;" style="rounded=1;whiteSpace=wrap;html=1;fontSize=16;shadow=1;glass=1;" parent="1" vertex="1">
          <mxGeometry x="627.5" y="460" width="120" height="60" as="geometry" />
        </mxCell>
        <mxCell id="U6J5OQ7OiZoA_9P3ea45-141" value="缓存" style="shape=datastore;whiteSpace=wrap;html=1;shadow=1;glass=1;sketch=0;strokeWidth=1;fontSize=16;" parent="1" vertex="1">
          <mxGeometry x="967.5" y="1530" width="60" height="60" as="geometry" />
        </mxCell>
        <mxCell id="U6J5OQ7OiZoA_9P3ea45-142" value="" style="rounded=0;html=1;fontSize=16;fillColor=#dae8fc;strokeColor=#6c8ebf;horizontal=0;whiteSpace=wrap;labelPosition=center;verticalLabelPosition=middle;align=center;verticalAlign=middle;glass=1;shadow=1;" parent="1" vertex="1">
          <mxGeometry x="1270" y="1140" width="130" height="300" as="geometry" />
        </mxCell>
        <mxCell id="U6J5OQ7OiZoA_9P3ea45-146" value="" style="image;html=1;image=img/lib/clip_art/computers/Monitor_128x128.png;shadow=1;glass=0;sketch=0;strokeWidth=1;fontSize=16;" parent="1" vertex="1">
          <mxGeometry x="627.5" y="115" width="53.5" height="55" as="geometry" />
        </mxCell>
        <mxCell id="U6J5OQ7OiZoA_9P3ea45-147" value="" style="image;html=1;image=img/lib/clip_art/telecommunication/BlackBerry_128x128.png;shadow=1;glass=0;sketch=0;strokeWidth=1;fontSize=16;" parent="1" vertex="1">
          <mxGeometry x="867.5" y="115" width="50" height="55" as="geometry" />
        </mxCell>
        <mxCell id="U6J5OQ7OiZoA_9P3ea45-151" value="" style="image;html=1;image=img/lib/clip_art/people/Worker_Man_128x128.png;shadow=1;glass=0;sketch=0;strokeWidth=1;fontSize=16;" parent="1" vertex="1">
          <mxGeometry x="315" y="115" width="80" height="80" as="geometry" />
        </mxCell>
        <mxCell id="U6J5OQ7OiZoA_9P3ea45-152" value="" style="image;html=1;image=img/lib/clip_art/networking/Cloud_128x128.png;shadow=1;glass=0;sketch=0;strokeWidth=1;fontSize=16;" parent="1" vertex="1">
          <mxGeometry x="1107.5" y="115" width="60" height="55" as="geometry" />
        </mxCell>
        <mxCell id="U6J5OQ7OiZoA_9P3ea45-166" value="" style="edgeStyle=orthogonalEdgeStyle;rounded=0;orthogonalLoop=1;jettySize=auto;html=1;shadow=1;fontSize=16;entryX=0.422;entryY=0.017;entryDx=0;entryDy=0;entryPerimeter=0;" parent="1" source="U6J5OQ7OiZoA_9P3ea45-155" target="U6J5OQ7OiZoA_9P3ea45-105" edge="1">
          <mxGeometry relative="1" as="geometry">
            <mxPoint x="845" y="1470" as="targetPoint" />
          </mxGeometry>
        </mxCell>
        <mxCell id="U6J5OQ7OiZoA_9P3ea45-167" value="" style="edgeStyle=orthogonalEdgeStyle;rounded=0;orthogonalLoop=1;jettySize=auto;html=1;shadow=1;fontSize=16;entryX=0.008;entryY=0.88;entryDx=0;entryDy=0;entryPerimeter=0;" parent="1" source="U6J5OQ7OiZoA_9P3ea45-155" target="U6J5OQ7OiZoA_9P3ea45-142" edge="1">
          <mxGeometry relative="1" as="geometry" />
        </mxCell>
        <mxCell id="U6J5OQ7OiZoA_9P3ea45-155" value="" style="rounded=0;whiteSpace=wrap;html=1;fontSize=16;fillColor=#dae8fc;strokeColor=#6c8ebf;glass=1;shadow=1;" parent="1" vertex="1">
          <mxGeometry x="440" y="1370" width="810" height="70" as="geometry" />
        </mxCell>
        <mxCell id="U6J5OQ7OiZoA_9P3ea45-156" value="仓储" style="text;html=1;strokeColor=none;fillColor=none;align=center;verticalAlign=middle;whiteSpace=wrap;rounded=0;shadow=1;glass=0;sketch=0;fontSize=16;" parent="1" vertex="1">
          <mxGeometry x="825" y="1395" width="40" height="20" as="geometry" />
        </mxCell>
        <mxCell id="U6J5OQ7OiZoA_9P3ea45-157" value="&lt;font style=&quot;vertical-align: inherit ; font-size: 16px&quot;&gt;&lt;font style=&quot;vertical-align: inherit ; font-size: 16px&quot;&gt;&lt;font style=&quot;vertical-align: inherit ; font-size: 16px&quot;&gt;&lt;font style=&quot;vertical-align: inherit ; font-size: 16px&quot;&gt;&lt;font style=&quot;vertical-align: inherit ; font-size: 16px&quot;&gt;&lt;font style=&quot;vertical-align: inherit ; font-size: 16px&quot;&gt;&lt;font style=&quot;vertical-align: inherit ; font-size: 16px&quot;&gt;&lt;font style=&quot;vertical-align: inherit ; font-size: 16px&quot;&gt;主数据&lt;/font&gt;&lt;/font&gt;&lt;/font&gt;&lt;/font&gt;&lt;/font&gt;&lt;/font&gt;&lt;/font&gt;&lt;/font&gt;" style="rounded=1;whiteSpace=wrap;html=1;fontSize=16;shadow=1;glass=1;" parent="1" vertex="1">
          <mxGeometry x="1000" y="680" width="120" height="60" as="geometry" />
        </mxCell>
        <mxCell id="U6J5OQ7OiZoA_9P3ea45-158" value="&lt;font style=&quot;vertical-align: inherit ; font-size: 16px&quot;&gt;&lt;font style=&quot;vertical-align: inherit ; font-size: 16px&quot;&gt;&lt;font style=&quot;vertical-align: inherit ; font-size: 16px&quot;&gt;&lt;font style=&quot;vertical-align: inherit ; font-size: 16px&quot;&gt;BPM&lt;/font&gt;&lt;/font&gt;&lt;/font&gt;&lt;/font&gt;" style="rounded=1;whiteSpace=wrap;html=1;fontSize=16;shadow=1;glass=1;" parent="1" vertex="1">
          <mxGeometry x="1000" y="770" width="120" height="60" as="geometry" />
        </mxCell>
        <mxCell id="U6J5OQ7OiZoA_9P3ea45-159" value="" style="rounded=1;whiteSpace=wrap;html=1;fontSize=16;shadow=1;glass=1;" parent="1" vertex="1">
          <mxGeometry x="1000" y="858" width="120" height="60" as="geometry" />
        </mxCell>
        <mxCell id="U6J5OQ7OiZoA_9P3ea45-160" value="" style="rounded=1;whiteSpace=wrap;html=1;fontSize=16;shadow=1;glass=1;" parent="1" vertex="1">
          <mxGeometry x="1000" y="950" width="120" height="60" as="geometry" />
        </mxCell>
        <mxCell id="U6J5OQ7OiZoA_9P3ea45-163" value="&lt;font style=&quot;vertical-align: inherit ; font-size: 16px&quot;&gt;&lt;font style=&quot;vertical-align: inherit ; font-size: 16px&quot;&gt;多语言&lt;/font&gt;&lt;/font&gt;" style="rounded=1;whiteSpace=wrap;html=1;fontSize=16;shadow=1;glass=1;" parent="1" vertex="1">
          <mxGeometry x="1100" y="1170" width="120" height="60" as="geometry" />
        </mxCell>
        <mxCell id="U6J5OQ7OiZoA_9P3ea45-164" value="数据库" style="rounded=1;whiteSpace=wrap;html=1;fontSize=16;shadow=1;glass=1;" parent="1" vertex="1">
          <mxGeometry x="1275" y="1364" width="120" height="60" as="geometry" />
        </mxCell>
        <mxCell id="o2Ne5mCiSdssdzf63n3L-1" value="PC端" style="text;html=1;strokeColor=none;fillColor=none;align=center;verticalAlign=middle;whiteSpace=wrap;rounded=0;" parent="1" vertex="1">
          <mxGeometry x="634.5" y="175" width="40" height="20" as="geometry" />
        </mxCell>
        <mxCell id="o2Ne5mCiSdssdzf63n3L-2" value="APP端" style="text;html=1;strokeColor=none;fillColor=none;align=center;verticalAlign=middle;whiteSpace=wrap;rounded=0;" parent="1" vertex="1">
          <mxGeometry x="872.5" y="175" width="40" height="20" as="geometry" />
        </mxCell>
        <mxCell id="o2Ne5mCiSdssdzf63n3L-3" value="第三方接入" style="text;html=1;strokeColor=none;fillColor=none;align=center;verticalAlign=middle;whiteSpace=wrap;rounded=0;" parent="1" vertex="1">
          <mxGeometry x="1102.5" y="177" width="70" height="18" as="geometry" />
        </mxCell>
        <mxCell id="3n2813O9StvmxeVWwpXJ-1" value="事务" style="rounded=1;whiteSpace=wrap;html=1;fontSize=16;shadow=1;glass=1;" vertex="1" parent="1">
          <mxGeometry x="1275" y="1290" width="120" height="60" as="geometry" />
        </mxCell>
        <mxCell id="3n2813O9StvmxeVWwpXJ-2" value="......" style="rounded=1;whiteSpace=wrap;html=1;fontSize=16;shadow=1;glass=1;" vertex="1" parent="1">
          <mxGeometry x="1100" y="1260" width="120" height="60" as="geometry" />
        </mxCell>
        <mxCell id="3n2813O9StvmxeVWwpXJ-3" value="消息" style="rounded=1;whiteSpace=wrap;html=1;fontSize=16;shadow=1;glass=1;" vertex="1" parent="1">
          <mxGeometry x="1275" y="1220" width="120" height="60" as="geometry" />
        </mxCell>
        <mxCell id="3n2813O9StvmxeVWwpXJ-4" value="RPC" style="rounded=1;whiteSpace=wrap;html=1;fontSize=16;shadow=1;glass=1;" vertex="1" parent="1">
          <mxGeometry x="1275" y="1150" width="120" height="60" as="geometry" />
        </mxCell>
        <mxCell id="3n2813O9StvmxeVWwpXJ-13" style="edgeStyle=orthogonalEdgeStyle;rounded=0;orthogonalLoop=1;jettySize=auto;html=1;" edge="1" parent="1" source="3n2813O9StvmxeVWwpXJ-5" target="U6J5OQ7OiZoA_9P3ea45-127">
          <mxGeometry relative="1" as="geometry" />
        </mxCell>
        <mxCell id="3n2813O9StvmxeVWwpXJ-14" style="edgeStyle=orthogonalEdgeStyle;rounded=0;orthogonalLoop=1;jettySize=auto;html=1;entryX=0.5;entryY=0;entryDx=0;entryDy=0;" edge="1" parent="1" source="3n2813O9StvmxeVWwpXJ-5" target="U6J5OQ7OiZoA_9P3ea45-120">
          <mxGeometry relative="1" as="geometry" />
        </mxCell>
        <mxCell id="3n2813O9StvmxeVWwpXJ-5" value="" style="rounded=0;whiteSpace=wrap;html=1;fontSize=16;glass=1;shadow=1;fillColor=#f8cecc;strokeColor=#b85450;" vertex="1" parent="1">
          <mxGeometry x="440" y="260" width="960" height="120" as="geometry" />
        </mxCell>
        <mxCell id="3n2813O9StvmxeVWwpXJ-6" value="&lt;font style=&quot;vertical-align: inherit ; font-size: 16px&quot;&gt;&lt;font style=&quot;vertical-align: inherit ; font-size: 16px&quot;&gt;代理层&lt;/font&gt;&lt;/font&gt;" style="rounded=0;whiteSpace=wrap;html=1;fontSize=16;glass=1;shadow=1;fillColor=#b1ddf0;strokeColor=#10739e;fontStyle=1" vertex="1" parent="1">
          <mxGeometry x="300" y="260" width="120" height="120" as="geometry" />
        </mxCell>
        <mxCell id="3n2813O9StvmxeVWwpXJ-7" value="&lt;font style=&quot;vertical-align: inherit ; font-size: 16px&quot;&gt;&lt;font style=&quot;vertical-align: inherit ; font-size: 16px&quot;&gt;Nginx&lt;/font&gt;&lt;/font&gt;" style="rounded=1;whiteSpace=wrap;html=1;fontSize=16;shadow=1;glass=1;" vertex="1" parent="1">
          <mxGeometry x="860" y="290" width="120" height="60" as="geometry" />
        </mxCell>
        <mxCell id="3n2813O9StvmxeVWwpXJ-17" value="权限控制" style="rounded=0;whiteSpace=wrap;html=1;fontStyle=1;fontSize=16;labelPosition=center;verticalLabelPosition=middle;align=center;verticalAlign=middle;horizontal=1;fillColor=#f9f7ed;strokeColor=#36393d;glass=1;shadow=1;" vertex="1" parent="1">
          <mxGeometry x="1420" y="430" width="120" height="650" as="geometry" />
        </mxCell>
        <mxCell id="3n2813O9StvmxeVWwpXJ-18" value="&lt;font style=&quot;vertical-align: inherit ; font-size: 16px&quot;&gt;&lt;font style=&quot;vertical-align: inherit ; font-size: 16px&quot;&gt;SSO&lt;br&gt;&lt;/font&gt;&lt;/font&gt;" style="rounded=1;whiteSpace=wrap;html=1;fontSize=16;shadow=1;glass=1;" vertex="1" parent="1">
          <mxGeometry x="851.25" y="460" width="120" height="60" as="geometry" />
        </mxCell>
      </root>
    </mxGraphModel>
  </diagram>
</mxfile>
